<?xml version="1.0" standalone="no"?>
<!DOCTYPE svg PUBLIC "-//W3C//DTD SVG 1.1//EN" "http://www.w3.org/Graphics/SVG/1.1/DTD/svg11.dtd" >
<svg xmlns="http://www.w3.org/2000/svg" xmlns:xlink="http://www.w3.org/1999/xlink" version="1.1">
<metadata>
Created by FontForge 20170731 at Thu Jan 21 22:56:59 2021
 By Aleksey,,,
""
</metadata>
<defs>
<font id="mifanstudioregular" horiz-adv-x="1239" >
  <font-face 
    font-family="mifanstudio"
    font-weight="500"
    font-stretch="normal"
    units-per-em="2048"
    panose-1="0 0 0 0 0 0 0 0 0 0"
    ascent="1638"
    descent="-410"
    x-height="963"
    cap-height="1434"
    bbox="-82 -512 2140 1905"
    underline-thickness="50"
    underline-position="-150"
    unicode-range="U+0020-FB04"
  />
<missing-glyph horiz-adv-x="457" 
d="M20 675h417v-675h-417v675zM68 48h320v579h-320v-579z" />
    <glyph glyph-name=".notdef" horiz-adv-x="457" 
d="M20 675h417v-675h-417v675zM68 48h320v579h-320v-579z" />
    <glyph glyph-name=".null" horiz-adv-x="0" 
 />
    <glyph glyph-name="nonmarkingreturn" horiz-adv-x="682" 
 />
    <glyph glyph-name="space" unicode=" " horiz-adv-x="552" 
 />
    <glyph glyph-name="exclam" unicode="!" horiz-adv-x="696" 
d="M247 22q-42 41 -42 101t42 102q41 41 101 41q59 0 102 -41q42 -42 42 -102q0 -61 -42 -101q-42 -42 -102 -42t-101 42zM283 451l-31 512v471h194v-471l-30 -512h-133z" />
    <glyph glyph-name="quotedbl" unicode="&#x22;" horiz-adv-x="942" 
d="M195 922l-31 512h194l-30 -512h-133zM614 922l-30 512h194l-30 -512h-134z" />
    <glyph glyph-name="numbersign" unicode="#" horiz-adv-x="1187" 
d="M178 399h-209v185h258l70 266h-211v184h260l109 400h190l-108 -400h280l109 400h190l-108 -400h211v-184h-261l-69 -266h211v-185h-260l-109 -399h-190l108 399h-280l-109 -399h-190zM487 850l-69 -266h280l70 266h-281z" />
    <glyph glyph-name="dollar" unicode="$" horiz-adv-x="1089" 
d="M61 219l142 139q151 -184 350 -184q104 0 177 61q73 60 73 154q0 61 -32 110q-31 46 -88 80q-55 30 -116 57q-93 40 -135 58q-71 30 -123 64q-182 122 -182 315q0 137 94 240q94 102 244 131v225h194v-223q160 -29 287 -135l-121 -150q-117 99 -256 99q-96 0 -166 -52
q-71 -53 -71 -141q0 -52 32 -93q31 -40 89 -72q47 -27 116 -56q97 -42 132 -58q71 -32 120 -65q187 -123 187 -328q0 -160 -97 -269q-97 -110 -252 -138v-224h-194v224q-246 36 -404 231z" />
    <glyph glyph-name="percent" unicode="%" horiz-adv-x="1935" 
d="M229 807q-106 109 -106 268t106 269q105 110 263 110t263 -110t105 -269t-105 -269t-263 -110t-263 111zM358 1221q-51 -59 -51 -146t51 -146t134 -59t134 59q50 59 50 146t-50 146q-51 59 -134 59t-134 -59zM647 0h-196l837 1434h197zM1181 90q-106 109 -106 268
t106 269q105 110 263 110t263 -110q105 -109 105 -269q0 -158 -105 -268t-263 -110t-263 110zM1311 504q-51 -58 -51 -146q0 -86 51 -145q50 -59 133 -59t134 59q50 59 50 145q0 87 -50 146q-51 59 -134 59t-133 -59z" />
    <glyph glyph-name="ampersand" unicode="&#x26;" horiz-adv-x="1341" 
d="M61 418q0 70 20 135q19 61 58 114t78 89q41 39 94 78q-74 77 -116 150q-41 71 -41 149q0 133 93 227q91 94 236 94q130 0 227 -90t97 -231q0 -105 -53 -184q-55 -79 -150 -152l359 -359q30 79 30 172q0 130 -37 244l185 51q47 -138 47 -295q0 -169 -80 -317l295 -293
h-262l-146 143q-172 -163 -430 -163q-218 0 -360 121q-144 120 -144 317zM256 418q0 -112 87 -183q88 -71 222 -71q177 0 295 115l-418 419q-87 -61 -137 -127q-49 -67 -49 -153zM348 1133q0 -79 119 -203q70 52 108 101q37 47 37 102q0 57 -37 97t-92 40q-62 0 -98 -40
q-37 -40 -37 -97z" />
    <glyph glyph-name="quotesingle" unicode="'" horiz-adv-x="522" 
d="M195 922l-31 512h194l-30 -512h-133z" />
    <glyph glyph-name="parenleft" unicode="(" horiz-adv-x="911" 
d="M386 14q-79 237 -79 498t79 499q78 238 224 443l158 -108q-127 -178 -196 -392q-70 -213 -70 -442t70 -442q69 -214 196 -392l-158 -108q-146 205 -224 444z" />
    <glyph glyph-name="parenright" unicode=")" horiz-adv-x="911" 
d="M301 -430l-158 108q126 176 197 393q70 213 70 441q0 229 -70 442q-71 215 -197 392l158 108q145 -204 225 -443q78 -240 78 -499q0 -260 -78 -498q-80 -240 -225 -444z" />
    <glyph glyph-name="asterisk" unicode="*" horiz-adv-x="1024" 
d="M381 965l-299 96l49 153l299 -96v316h164v-314l299 99l51 -156l-301 -98l186 -254l-131 -97l-186 256l-184 -256l-131 95z" />
    <glyph glyph-name="plus" unicode="+" horiz-adv-x="1105" 
d="M461 440h-359v185h359v358h184v-358h359v-185h-359v-358h-184v358z" />
    <glyph glyph-name="comma" unicode="," horiz-adv-x="696" 
d="M225 -287h-133l154 533h225z" />
    <glyph glyph-name="hyphen" unicode="-" horiz-adv-x="942" 
d="M778 440h-614v164h614v-164z" />
    <glyph glyph-name="period" unicode="." horiz-adv-x="696" 
d="M267 22q-42 41 -42 101t42 102q43 41 102 41t102 -41q41 -43 41 -102q0 -60 -41 -101q-42 -42 -102 -42t-102 42z" />
    <glyph glyph-name="slash" unicode="/" horiz-adv-x="890" 
d="M213 0h-203l668 1434h203z" />
    <glyph glyph-name="zero" unicode="0" horiz-adv-x="1208" 
d="M140 429q-27 131 -27 288t27 288q27 129 84 233q56 102 153 159q98 57 227 57q130 0 227 -57t154 -159q57 -104 84 -233q27 -131 27 -288t-27 -288q-27 -130 -84 -232q-57 -103 -154 -160t-227 -57t-227 57q-98 57 -153 160q-57 102 -84 232zM604 1260q-287 0 -287 -543
t287 -543t287 543t-287 543z" />
    <glyph glyph-name="one" unicode="1" horiz-adv-x="829" 
d="M379 1178l-277 -140v203l338 193h144v-1434h-205v1178z" />
    <glyph glyph-name="two" unicode="2" horiz-adv-x="1064" 
d="M932 0h-860v133l489 559q91 104 129 174q37 70 37 156q0 97 -64 167q-65 71 -163 71q-92 0 -153 -51q-63 -54 -91 -140l-182 59q28 98 79 164q54 69 115 101q62 33 118 47q58 14 110 14q185 0 311 -126q125 -128 125 -306q0 -206 -187 -420l-360 -407h547v-195z" />
    <glyph glyph-name="three" unicode="3" horiz-adv-x="1105" 
d="M51 225l170 99q37 -69 109 -109q74 -41 162 -41q124 0 210 85q86 86 86 212q0 129 -87 213t-222 84q-76 0 -166 -23v134l305 360h-495v195h799v-134l-316 -362q165 -26 276 -157q111 -132 111 -310q0 -139 -66 -251q-68 -115 -179 -177q-112 -63 -244 -63q-152 0 -271 64
q-121 64 -182 181z" />
    <glyph glyph-name="four" unicode="4" horiz-adv-x="1157" 
d="M707 348h-676v133l737 953h143v-891h226v-195h-226v-348h-204v348zM707 1026l-385 -483h385v483z" />
    <glyph glyph-name="five" unicode="5" horiz-adv-x="1126" 
d="M82 184l156 121q43 -58 114 -94q70 -37 152 -37q125 0 205 86q79 85 79 211q0 125 -80 211q-81 86 -210 86t-217 -82l-142 21l103 727h671v-195h-503l-41 -301q75 25 135 25q138 0 250 -67q114 -68 176 -179q63 -113 63 -246t-63 -245q-63 -113 -176 -179
q-113 -67 -252 -67q-132 0 -242 55q-110 53 -178 149z" />
    <glyph glyph-name="six" unicode="6" horiz-adv-x="1198" 
d="M113 465q0 111 47 219q40 90 135 234l340 516h231l-313 -482q24 4 78 4q129 0 239 -63q108 -63 172 -175t64 -247q0 -136 -64 -248q-65 -113 -178 -177q-116 -66 -256 -66t-255 65q-114 64 -177 176q-63 111 -63 244zM315 471q0 -127 84 -212t209 -85q127 0 210 86
t83 207q0 125 -82 213t-207 88q-146 0 -225 -76q-72 -112 -72 -221z" />
    <glyph glyph-name="seven" unicode="7" horiz-adv-x="1064" 
d="M748 1239h-656v195h901v-134l-641 -1300h-219z" />
    <glyph glyph-name="eight" unicode="8" horiz-adv-x="1187" 
d="M102 434q0 121 64 221q62 99 164 154q-59 40 -97 114t-38 152q0 158 115 269q116 110 284 110t284 -110q115 -111 115 -269q0 -79 -37 -152t-98 -114q102 -55 164 -154q63 -101 63 -221q0 -125 -64 -228q-64 -104 -178 -165q-112 -61 -249 -61q-207 0 -349 133
q-143 132 -143 321zM307 434q0 -109 83 -184q82 -76 204 -76q123 0 205 76q82 75 82 184q0 110 -82 186t-205 76q-122 0 -204 -76q-83 -77 -83 -186zM455 1206q-56 -54 -56 -131t56 -130q55 -54 139 -54t139 54q55 52 55 130t-55 132q-56 53 -139 53q-84 0 -139 -54z" />
    <glyph glyph-name="nine" unicode="9" horiz-adv-x="1198" 
d="M92 963q0 136 64 248q65 113 179 178q115 65 255 65t255 -65q114 -64 177 -176q63 -111 63 -244q0 -111 -47 -219q-40 -90 -135 -234l-340 -516h-231l313 481q-24 -4 -78 -4q-129 0 -238 64q-108 62 -173 175q-64 112 -64 247zM297 967q0 -123 83 -212t206 -89
q147 0 225 75q72 113 72 222q0 127 -84 212t-209 85q-128 0 -210 -85q-83 -86 -83 -208z" />
    <glyph glyph-name="colon" unicode=":" horiz-adv-x="696" 
d="M267 22q-42 41 -42 101t42 102q43 41 102 41t102 -41q41 -43 41 -102q0 -60 -41 -101q-42 -42 -102 -42t-102 42zM267 738q-42 42 -42 102t42 102q43 41 102 41t102 -41q41 -43 41 -102t-41 -102q-42 -42 -102 -42t-102 42z" />
    <glyph glyph-name="semicolon" unicode=";" horiz-adv-x="696" 
d="M225 -287h-133l154 533h225zM267 738q-42 42 -42 102t42 102q43 41 102 41t102 -41q41 -43 41 -102t-41 -102q-42 -42 -102 -42t-102 42z" />
    <glyph glyph-name="less" unicode="&#x3c;" horiz-adv-x="1116" 
d="M1004 86l-902 385v123l902 385v-201l-576 -246l576 -245v-201z" />
    <glyph glyph-name="equal" unicode="=" horiz-adv-x="1105" 
d="M1004 256h-902v184h902v-184zM1004 625h-902v184h902v-184z" />
    <glyph glyph-name="greater" unicode="&#x3e;" horiz-adv-x="1116" 
d="M1014 471l-901 -385v201l575 245l-575 246v201l901 -385v-123z" />
    <glyph glyph-name="question" unicode="?" horiz-adv-x="1024" 
d="M317 1114l-184 53q32 126 145 206q114 81 263 81q171 0 286 -109t115 -264q0 -65 -19 -121q-19 -58 -51 -100q-26 -36 -70 -80q-34 -34 -76 -66q-13 -10 -36.5 -28t-32.5 -25q-33 -26 -51 -49q-20 -25 -20 -45q0 -39 53 -86l-129 -135q-119 89 -119 219q0 71 37 129
q37 57 90 100q62 50 104 82q52 40 89 92t37 113q0 79 -58 134t-149 55q-81 0 -145 -45q-64 -46 -79 -111zM431 22q-42 41 -42 101t42 102q41 41 101 41q59 0 102 -41q42 -42 42 -102q0 -61 -42 -101q-42 -42 -102 -42t-101 42z" />
    <glyph glyph-name="at" unicode="@" horiz-adv-x="2048" 
d="M214 162q-71 168 -71 350q0 183 71 351q70 166 190 287q120 120 286 192q166 71 348 71q240 0 436 -102q197 -102 314 -290q117 -189 117 -427q0 -107 -24 -200q-25 -93 -72 -165q-48 -73 -124 -115q-77 -42 -174 -42q-170 0 -254 121q-37 -48 -108 -84q-70 -37 -174 -37
q-77 0 -149 30q-70 28 -130 83q-58 52 -93 139q-36 86 -36 188q0 84 24 156q22 71 63 124q40 50 93 88q52 36 113 54q58 18 121 18q145 0 240 -90v70h174v-498q0 -89 20 -127q34 -61 111 -61q94 0 146 96q52 94 52 256q0 183 -89 331q-90 146 -247 228t-350 82t-356 -97
q-164 -98 -259 -265q-95 -169 -95 -365q0 -197 95 -364q94 -166 259 -265q164 -98 356 -98q232 0 422 141l96 -143q-109 -84 -240 -127q-134 -45 -278 -45q-183 0 -348 72q-166 70 -286 192q-119 119 -190 287zM752 512q0 -128 75 -197q73 -69 177 -69q46 0 88 18
q42 17 65 36q25 20 53 48v338q-84 92 -211 92q-99 0 -173 -69q-74 -71 -74 -197z" />
    <glyph glyph-name="A" unicode="A" horiz-adv-x="1351" 
d="M223 0h-213l594 1434h144l593 -1434h-213l-151 369h-604zM676 1096l-221 -533h442z" />
    <glyph glyph-name="B" unicode="B" horiz-adv-x="1280" 
d="M737 0h-553v1434h488q182 0 295 -101q55 -51 87 -122q31 -69 31 -150q0 -73 -30 -140q-31 -69 -82 -116q104 -53 169 -155q66 -104 66 -222q0 -98 -42 -185q-42 -89 -115 -147q-115 -96 -314 -96zM389 676v-481h311q93 0 146 19q54 18 90 54q68 71 68 168q0 95 -68 166
q-36 36 -91 56q-54 18 -145 18h-311zM389 1239v-369h246q81 0 125 15t71 45q50 53 50 125t-50 125q-27 30 -70 45q-45 14 -126 14h-246z" />
    <glyph glyph-name="C" unicode="C" horiz-adv-x="1413" 
d="M72 717q0 204 94 373q94 170 261 267q166 97 370 97q151 0 292 -59q137 -58 232 -162l-137 -135q-64 70 -170 117q-105 45 -217 45q-220 0 -370 -156q-151 -155 -151 -387q0 -158 71 -283q70 -124 194 -192q122 -68 274 -68q131 0 237 59q105 60 175 144l145 -131
q-94 -120 -244 -193q-149 -73 -313 -73q-157 0 -296 56t-236 153q-99 99 -154 234q-57 137 -57 294z" />
    <glyph glyph-name="D" unicode="D" horiz-adv-x="1464" 
d="M614 0h-430v1434h430q308 0 492 -136q135 -102 211 -252q76 -152 76 -329q0 -178 -76 -330q-77 -154 -209 -252q-184 -135 -494 -135zM389 1239v-1044h215q146 0 243 30q96 28 167 90q81 71 128 178q46 104 46 224t-46 224q-47 105 -128 177q-70 61 -167 91t-243 30h-215
z" />
    <glyph glyph-name="E" unicode="E" horiz-adv-x="1105" 
d="M1024 0h-840v1434h820v-195h-615v-369h471v-194h-471v-481h635v-195z" />
    <glyph glyph-name="F" unicode="F" horiz-adv-x="1044" 
d="M389 0h-205v1434h820v-195h-615v-369h471v-194h-471v-676z" />
    <glyph glyph-name="G" unicode="G" horiz-adv-x="1505" 
d="M72 717q0 204 94 373q94 170 261 267q166 97 370 97q151 0 292 -59q137 -58 232 -162l-137 -135q-64 70 -170 117q-105 45 -217 45q-220 0 -370 -156q-151 -155 -151 -387q0 -158 71 -283q70 -124 194 -192q122 -68 274 -68q111 0 201 37q91 36 151 96v369h-409v194h614
v-624q-95 -119 -244 -192q-151 -74 -313 -74q-157 0 -296 56t-236 153q-99 99 -154 234q-57 137 -57 294z" />
    <glyph glyph-name="H" unicode="H" horiz-adv-x="1576" 
d="M389 0h-205v1434h205v-564h799v564h205v-1434h-205v676h-799v-676z" />
    <glyph glyph-name="I" unicode="I" horiz-adv-x="573" 
d="M389 0h-205v1434h205v-1434z" />
    <glyph glyph-name="J" unicode="J" horiz-adv-x="942" 
d="M0 211l182 78q26 -53 76 -84t115 -31q48 0 91 22q45 23 71 58q38 50 38 162v1018h205v-1004q0 -156 -49 -244q-52 -94 -148 -150q-97 -56 -208 -56q-126 0 -227 62t-146 169z" />
    <glyph glyph-name="K" unicode="K" horiz-adv-x="1331" 
d="M389 0h-205v1434h205v-605l590 605h270l-647 -666l688 -768h-262l-639 717v-717z" />
    <glyph glyph-name="L" unicode="L" horiz-adv-x="1064" 
d="M1024 0h-840v1434h205v-1239h635v-195z" />
    <glyph glyph-name="M" unicode="M" horiz-adv-x="1761" 
d="M389 0h-205v1434h144l553 -875l553 875h143v-1434h-205v965l-420 -658h-143l-420 658v-965z" />
    <glyph glyph-name="N" unicode="N" horiz-adv-x="1576" 
d="M389 0h-205v1434h144l860 -1053v1053h205v-1434h-144l-860 1053v-1053z" />
    <glyph glyph-name="O" unicode="O" horiz-adv-x="1576" 
d="M127 426q-55 135 -55 291t55 291q56 138 150 235t228 154q133 57 283 57q200 0 365 -96q164 -98 258 -266q94 -169 94 -375t-94 -375t-258 -265q-164 -97 -365 -97q-149 0 -283 57q-133 57 -228 155t-150 234zM276 717q0 -233 146 -388t366 -155t366 155t146 388
q0 231 -146 388q-147 155 -366 155t-365 -155q-147 -156 -147 -388z" />
    <glyph glyph-name="P" unicode="P" horiz-adv-x="1228" 
d="M389 0h-205v1434h543q186 0 299 -95q67 -58 104 -136t37 -169t-37 -169t-104 -136q-112 -94 -299 -94h-338v-635zM389 1239v-410h328q127 0 188 64q58 61 58 141q0 81 -58 142q-60 63 -188 63h-328z" />
    <glyph glyph-name="Q" unicode="Q" horiz-adv-x="1587" 
d="M127 426q-55 135 -55 291t55 291q56 138 150 235t228 154q133 57 283 57q200 0 365 -96q164 -98 258 -266q94 -169 94 -375q0 -278 -170 -486l211 -231h-254l-96 104q-178 -124 -408 -124q-149 0 -283 57q-133 57 -228 155t-150 234zM276 717q0 -233 146 -388t366 -155
q150 0 275 78l-344 383l143 123l336 -375q102 145 102 334q0 231 -146 388q-147 155 -366 155t-365 -155q-147 -156 -147 -388z" />
    <glyph glyph-name="R" unicode="R" horiz-adv-x="1310" 
d="M389 0h-205v1434h502q174 0 279 -84q67 -55 104 -130t37 -165q0 -89 -37 -164q-38 -77 -104 -131q-73 -59 -168 -76l514 -684h-248l-510 676h-164v-676zM389 1239v-369h287q118 0 172 54q53 53 53 131t-53 131t-172 53h-287z" />
    <glyph glyph-name="S" unicode="S" horiz-adv-x="1089" 
d="M61 219l142 139q151 -184 350 -184q104 0 177 61q73 60 73 154q0 61 -32 110q-31 46 -88 80q-55 30 -116 57q-93 40 -135 58q-71 30 -123 64q-182 122 -182 315q0 159 125 270q124 111 309 111q212 0 385 -143l-121 -150q-117 99 -256 99q-96 0 -166 -52
q-71 -53 -71 -141q0 -52 32 -93q31 -40 89 -72q47 -27 116 -56q97 -42 132 -58q71 -32 120 -65q187 -123 187 -328q0 -186 -127 -300q-127 -115 -318 -115q-147 0 -277 62t-225 177z" />
    <glyph glyph-name="T" unicode="T" horiz-adv-x="1044" 
d="M420 1239h-389v195h983v-195h-389v-1239h-205v1239z" />
    <glyph glyph-name="U" unicode="U" horiz-adv-x="1515" 
d="M164 594v840h205v-850q0 -184 90 -283q114 -127 299 -127t299 127q90 99 90 283v850h205v-840q0 -262 -150 -426q-82 -88 -198 -138q-117 -50 -246 -50t-246 50t-199 138q-149 163 -149 426z" />
    <glyph glyph-name="V" unicode="V" horiz-adv-x="1310" 
d="M584 0l-564 1434h213l422 -1082l422 1082h213l-563 -1434h-143z" />
    <glyph glyph-name="W" unicode="W" horiz-adv-x="1945" 
d="M471 0l-451 1434h209l322 -1039l350 1039h143l351 -1039l321 1039h209l-450 -1434h-144l-358 1061l-359 -1061h-143z" />
    <glyph glyph-name="X" unicode="X" horiz-adv-x="1349" 
d="M272 0h-241l510 784l-428 650h252l309 -478l311 478h252l-430 -650l512 -784h-242l-403 612z" />
    <glyph glyph-name="Y" unicode="Y" horiz-adv-x="1228" 
d="M512 655l-492 779h230l364 -576l365 576h229l-491 -779v-655h-205v655z" />
    <glyph glyph-name="Z" unicode="Z" horiz-adv-x="1208" 
d="M1147 0h-1065v133l749 1106h-688v195h963v-134l-746 -1105h787v-195z" />
    <glyph glyph-name="bracketleft" unicode="[" horiz-adv-x="911" 
d="M809 -410h-502v1844h502v-185h-307v-1474h307v-185z" />
    <glyph glyph-name="backslash" unicode="\" horiz-adv-x="890" 
d="M678 0l-668 1434h203l668 -1434h-203z" />
    <glyph glyph-name="bracketright" unicode="]" horiz-adv-x="911" 
d="M102 -410v185h308v1474h-308v185h502v-1844h-502z" />
    <glyph glyph-name="asciicircum" unicode="^" horiz-adv-x="1105" 
d="M328 717h-205l362 717h136l362 -717h-205l-225 444z" />
    <glyph glyph-name="underscore" unicode="_" horiz-adv-x="1003" 
d="M41 -164v164h922v-164h-922z" />
    <glyph glyph-name="grave" unicode="`" horiz-adv-x="634" 
d="M358 1126l-215 308h215l134 -308h-134z" />
    <glyph glyph-name="a" unicode="a" 
d="M159 225q-67 115 -67 256q0 140 68 258q68 117 180 183q103 61 235 61q177 0 302 -109v89h188v-963h-188v88q-120 -108 -297 -108q-136 0 -242 63q-111 65 -179 182zM287 481q0 -132 91 -224q92 -93 228 -93q74 0 145 36q68 35 119 101v361q-47 62 -118 100
q-71 37 -156 37q-137 0 -222 -94q-87 -95 -87 -224z" />
    <glyph glyph-name="b" unicode="b" 
d="M362 0h-188v1454h195v-575q125 104 295 104q132 0 235 -61q113 -66 180 -183q68 -118 68 -258q0 -141 -67 -256q-68 -117 -179 -182q-107 -63 -242 -63q-177 0 -297 108v-88zM369 662v-361q51 -66 119 -101q70 -36 145 -36q137 0 228 93q91 92 91 224q0 129 -86 224
q-87 94 -223 94q-85 0 -155 -37q-72 -37 -119 -100z" />
    <glyph glyph-name="c" unicode="c" horiz-adv-x="1085" 
d="M92 481q0 213 143 358q143 144 359 144q123 0 233 -56q108 -57 177 -153l-144 -121q-45 62 -113 105q-68 41 -153 41q-131 0 -219 -91t-88 -227q0 -139 90 -228q91 -89 229 -89q168 0 279 149l149 -108q-60 -101 -178 -162q-118 -63 -250 -63q-222 0 -368 143t-146 358z
" />
    <glyph glyph-name="d" unicode="d" 
d="M159 225q-67 115 -67 256q0 140 68 258q68 117 180 183q103 61 235 61q170 0 295 -104v575h195v-1454h-188v88q-120 -108 -297 -108q-136 0 -242 63q-111 65 -179 182zM287 481q0 -132 91 -224q92 -93 228 -93q74 0 145 36q68 35 119 101v361q-47 62 -118 100
q-71 37 -156 37q-137 0 -222 -94q-87 -95 -87 -224z" />
    <glyph glyph-name="e" unicode="e" horiz-adv-x="1116" 
d="M92 481q0 218 133 360q132 142 336 142q200 0 332 -143q131 -145 131 -359q0 -17 -2 -41h-741q7 -121 97 -206q88 -84 214 -84q96 0 160 36q63 36 116 95l127 -121q-63 -78 -164 -128q-103 -52 -241 -52t-253 65q-116 65 -179 179q-66 116 -66 257zM297 604h524
q-23 92 -94 150q-74 59 -160 59q-95 0 -169 -58q-75 -58 -101 -151z" />
    <glyph glyph-name="f" unicode="f" horiz-adv-x="829" 
d="M276 788h-225v175h225v81q0 182 62 271q51 75 136 118q82 42 179 42q64 0 115 -15l-41 -178q-30 8 -72 8q-41 0 -82 -18q-42 -19 -65 -49q-37 -47 -37 -172v-88h297v-175h-297v-788h-195v788z" />
    <glyph glyph-name="g" unicode="g" 
d="M159 225q-67 115 -67 256q0 140 68 258q68 117 180 183q103 61 235 61q177 0 302 -109v89h188v-922q0 -204 -57 -315q-59 -114 -167 -175q-108 -63 -249 -63q-90 0 -169 21q-82 22 -137 55q-59 35 -98 71t-65 76l143 133q62 -81 135 -126q73 -46 183 -46q161 0 233 111
q53 80 53 248v53q-119 -104 -290 -104q-136 0 -242 63q-111 65 -179 182zM287 481q0 -132 91 -224q92 -93 228 -93q74 0 145 36q68 35 119 101v361q-47 62 -118 100q-71 37 -156 37q-137 0 -222 -94q-87 -95 -87 -224z" />
    <glyph glyph-name="h" unicode="h" horiz-adv-x="1249" 
d="M369 0h-195v1454h195v-575q122 104 282 104q105 0 196 -45q92 -47 154 -125q95 -122 95 -342v-471h-195v481q0 153 -57 224q-34 43 -87 69q-51 25 -112 25q-163 0 -276 -137v-662z" />
    <glyph glyph-name="i" unicode="i" horiz-adv-x="542" 
d="M180 1215q-37 36 -37 90q0 55 37 92q36 37 90 37q55 0 92 -37t37 -92q0 -54 -37 -90q-37 -37 -92 -37q-54 0 -90 37zM369 0h-195v963h195v-963z" />
    <glyph glyph-name="j" unicode="j" horiz-adv-x="583" 
d="M-82 -498l41 179q31 -9 72 -9q43 0 83 18q39 17 64 50q37 47 37 172v1051h195v-1045q0 -181 -62 -270q-52 -76 -135 -118t-180 -42q-67 0 -115 14zM221 1215q-37 36 -37 90q0 55 37 92q36 37 90 37q55 0 92 -37t37 -92q0 -54 -37 -90q-37 -37 -92 -37q-54 0 -90 37z" />
    <glyph glyph-name="k" unicode="k" horiz-adv-x="1126" 
d="M369 0h-195v1454h195v-860l401 369h274l-481 -435l543 -528h-260l-477 471v-471z" />
    <glyph glyph-name="l" unicode="l" horiz-adv-x="542" 
d="M369 0h-195v1454h195v-1454z" />
    <glyph glyph-name="m" unicode="m" horiz-adv-x="1935" 
d="M369 0h-195v963h188v-93q35 39 115 77q79 36 168 36q104 0 191 -43q88 -44 149 -117q76 76 162 118q85 42 205 42q103 0 192 -43q90 -44 150 -119q44 -56 67 -133q21 -76 21 -196v-492h-195v522q0 129 -55 193q-70 84 -180 84q-162 0 -293 -137q16 -73 16 -170v-492h-194
v522q0 126 -56 193q-34 40 -82 62t-104 22q-82 0 -152 -40t-118 -97v-662z" />
    <glyph glyph-name="n" unicode="n" horiz-adv-x="1249" 
d="M369 0h-195v963h188v-93q46 44 122 80q73 33 167 33q105 0 196 -45q92 -47 154 -125q95 -122 95 -342v-471h-195v481q0 153 -57 224q-34 43 -87 69q-51 25 -112 25q-163 0 -276 -137v-662z" />
    <glyph glyph-name="o" unicode="o" horiz-adv-x="1179" 
d="M234 123q-142 142 -142 358t142 359q143 143 356 143t356 -143q141 -144 141 -359t-141 -358q-143 -143 -356 -143t-356 143zM373 707q-86 -92 -86 -226q0 -133 86 -225t217 -92q132 0 218 92q85 91 85 225q0 135 -85 226q-86 92 -218 92q-131 0 -217 -92z" />
    <glyph glyph-name="p" unicode="p" 
d="M369 -492h-195v1455h188v-89q125 109 302 109q132 0 235 -61q113 -66 180 -183q68 -118 68 -258q0 -141 -67 -256q-68 -117 -179 -182q-107 -63 -242 -63q-171 0 -290 104v-576zM369 662v-361q51 -66 119 -101q70 -36 145 -36q137 0 228 93q91 92 91 224q0 129 -86 224
q-87 94 -223 94q-85 0 -155 -37q-72 -37 -119 -100z" />
    <glyph glyph-name="q" unicode="q" 
d="M159 225q-67 115 -67 256q0 140 68 258q68 117 180 183q103 61 235 61q177 0 302 -109v89h188v-1455h-195v576q-119 -104 -290 -104q-136 0 -242 63q-111 65 -179 182zM287 481q0 -132 91 -224q92 -93 228 -93q74 0 145 36q68 35 119 101v361q-47 62 -118 100
q-71 37 -156 37q-137 0 -222 -94q-87 -95 -87 -224z" />
    <glyph glyph-name="r" unicode="r" horiz-adv-x="788" 
d="M369 0h-195v963h188v-111q39 56 115 93q76 38 174 38q41 0 76 -6l-22 -186q-34 8 -76 8q-74 0 -147 -46t-113 -116v-637z" />
    <glyph glyph-name="s" unicode="s" horiz-adv-x="931" 
d="M82 113l100 143q136 -106 285 -106q67 0 118 33q50 33 50 87q0 33 -16 55q-15 21 -51 38q-30 13 -66 25q-14 4 -84 22q-52 14 -84 24q-221 74 -221 248q0 76 31 134q33 60 83 95q51 34 113 54q62 18 129 18q188 0 319 -106l-100 -140q-100 76 -207 76q-73 0 -123 -33
q-51 -33 -51 -88q0 -20 10 -34q8 -15 22 -26q13 -10 39 -21q18 -7 46 -16q22 -7 55 -15q54 -14 96 -27q36 -12 92 -40q50 -25 84 -56q33 -33 55 -78q23 -49 23 -105q0 -132 -105 -213q-106 -81 -253 -81q-226 0 -389 133z" />
    <glyph glyph-name="t" unicode="t" horiz-adv-x="860" 
d="M266 788h-246v175h246v266h195v-266h307v-175h-307v-450q0 -92 28 -123q19 -23 57 -37q39 -14 77 -14q63 0 106 12l39 -176q-63 -20 -152 -20q-175 0 -272 112q-78 86 -78 256v440z" />
    <glyph glyph-name="u" unicode="u" horiz-adv-x="1228" 
d="M154 471v492h194v-523q0 -128 55 -192q32 -38 83 -61t104 -23q82 0 152 40t118 97v662h195v-963h-189v88q-40 -39 -117 -74q-75 -34 -165 -34q-104 0 -191 43q-90 42 -151 118q-45 57 -66 134q-22 75 -22 196z" />
    <glyph glyph-name="v" unicode="v" horiz-adv-x="1011" 
d="M438 0l-418 963h201l285 -656l285 656h200l-418 -963h-135z" />
    <glyph glyph-name="w" unicode="w" horiz-adv-x="1634" 
d="M412 0l-392 963h201l264 -658l265 658h135l264 -658l264 658h201l-391 -963h-136l-270 676l-270 -676h-135z" />
    <glyph glyph-name="x" unicode="x" horiz-adv-x="1044" 
d="M262 0h-231l364 506l-329 457h229l227 -312l228 312h229l-330 -457l365 -506h-232l-260 360z" />
    <glyph glyph-name="y" unicode="y" horiz-adv-x="1042" 
d="M432 100l-412 863h209l301 -635l277 635h205l-633 -1455h-207z" />
    <glyph glyph-name="z" unicode="z" horiz-adv-x="962" 
d="M922 0h-840v123l528 665h-497v175h768v-123l-531 -666h572v-174z" />
    <glyph glyph-name="braceleft" unicode="{" horiz-adv-x="911" 
d="M143 451v122q87 0 126 33q38 32 38 111q0 57 -10 178q-10 120 -10 197q0 194 106 276q81 66 252 66h62v-185h-70q-83 0 -121 -41q-35 -41 -35 -129q0 -50 11 -173q10 -111 10 -183q0 -62 -17 -108q-17 -45 -38 -65q-24 -22 -54 -38q29 -15 54 -37q22 -22 38 -66
q17 -46 17 -108q0 -72 -10 -183q-11 -123 -11 -173q0 -88 35 -129q38 -41 121 -41h70v-185h-62q-171 0 -252 66q-106 82 -106 276q0 77 10 198q10 120 10 177q0 79 -38 112q-40 32 -126 32z" />
    <glyph glyph-name="bar" unicode="|" horiz-adv-x="440" 
d="M317 -410h-194v1844h194v-1844z" />
    <glyph glyph-name="braceright" unicode="}" horiz-adv-x="911" 
d="M205 -410v185h69q83 0 121 41q35 41 35 129q0 62 -10 173t-10 183q0 92 29 139q28 46 79 72q-50 26 -79 73t-29 138q0 72 10 183t10 173q0 88 -35 129q-38 41 -121 41h-69v185h61q171 0 252 -66q107 -83 107 -276q0 -77 -10 -197q-11 -134 -11 -178q0 -79 39 -111
q38 -33 125 -33v-122q-87 0 -125 -32q-39 -33 -39 -112q0 -45 11 -177q10 -121 10 -198q0 -193 -107 -276q-81 -66 -252 -66h-61z" />
    <glyph glyph-name="asciitilde" unicode="~" horiz-adv-x="1146" 
d="M209 373l-158 80q20 50 47 94q22 38 64 83q39 41 89 62q54 23 111 23q52 0 105 -18q50 -19 92 -45q10 -7 36 -25t40 -28q37 -28 73 -45q35 -19 68 -19q92 0 162 157l158 -80q-19 -47 -47 -93q-29 -46 -64 -83q-37 -40 -90 -63q-54 -23 -111 -23q-54 0 -104 19
q-50 17 -92 45q-33 21 -76 53q-36 25 -72 45q-38 18 -69 18q-92 0 -162 -157z" />
    <glyph glyph-name="nbsp" unicode="&#xa0;" horiz-adv-x="552" 
 />
    <glyph glyph-name="exclamdown" unicode="&#xa1;" horiz-adv-x="696" 
d="M247 738q-42 42 -42 102t42 102q41 41 101 41q59 0 102 -41q42 -42 42 -102t-42 -102t-102 -42t-101 42zM252 -492v472l31 512h133l30 -512v-472h-194z" />
    <glyph glyph-name="cent" unicode="&#xa2;" horiz-adv-x="1085" 
d="M92 481q0 187 113 324t291 168v225h194v-225q95 -20 176 -71q84 -53 138 -128l-144 -121q-45 62 -113 105q-68 41 -153 41q-131 0 -219 -91t-88 -227q0 -139 90 -228q91 -89 229 -89q168 0 279 149l149 -108q-50 -83 -143 -142q-91 -59 -201 -75v-224h-194v228
q-180 34 -292 169q-112 133 -112 320z" />
    <glyph glyph-name="sterling" unicode="&#xa3;" horiz-adv-x="1085" 
d="M1034 0h-952v123q88 34 152 103q64 70 96 147q30 77 30 149q0 52 -18 123h-219v174h156q-62 151 -62 254q0 109 56 198q55 87 146 136q91 47 193 47q117 0 208 -55t149 -137l-154 -111q-32 51 -84 86q-53 33 -119 33q-77 0 -139 -56q-61 -55 -61 -145q0 -22 4 -42
q3 -24 7 -38q7 -27 13 -43q3 -10 8 -23.5t6 -16.5q3 -9 18 -44q5 -12 10.5 -26.5t6.5 -16.5h303v-174h-245q12 -59 12 -123q0 -94 -33 -185q-33 -90 -86 -153h598v-184z" />
    <glyph glyph-name="currency" unicode="&#xa4;" horiz-adv-x="1146" 
d="M190 207l-129 129l156 156q-65 106 -65 227t65 227l-156 156l129 129l156 -156q106 66 227 66t228 -66l155 156l129 -129l-155 -156q65 -101 65 -227t-65 -227l155 -156l-129 -129l-155 155q-101 -65 -228 -65q-126 0 -227 65zM413 880q-67 -67 -67 -161t67 -160
q66 -67 160 -67t161 67q67 66 67 160t-67 161q-68 66 -161 66q-94 0 -160 -66z" />
    <glyph glyph-name="yen" unicode="&#xa5;" horiz-adv-x="1228" 
d="M313 963l-293 471h234l360 -586l361 586h233l-295 -471h193v-175h-301l-88 -143h389v-174h-389v-471h-205v471h-389v174h389l-90 143h-299v175h190z" />
    <glyph glyph-name="brokenbar" unicode="&#xa6;" horiz-adv-x="522" 
d="M164 -410v799h194v-799h-194zM358 635h-194v799h194v-799z" />
    <glyph glyph-name="section" unicode="&#xa7;" horiz-adv-x="1187" 
d="M92 528q0 93 51 183q50 88 131 151q-86 83 -86 211q0 157 125 270q125 111 310 111q212 0 385 -143l-121 -150q-117 99 -256 99q-96 0 -167 -47q-71 -48 -71 -134q0 -45 30 -79q30 -36 84 -61q55 -28 112 -48q20 -7 64.5 -24t68.5 -26q73 -29 129 -59q215 -117 215 -327
q0 -95 -51 -184q-53 -90 -132 -150q86 -89 86 -211q0 -159 -124 -270t-310 -111q-212 0 -385 143l121 150q116 -98 256 -98q97 0 168 47q70 46 70 133q0 44 -29 79q-31 35 -84 62q-63 29 -112 47q-47 17 -134 51q-71 26 -129 58q-215 117 -215 327zM297 537q0 -41 20 -78
q19 -35 50 -60q29 -24 78 -48q45 -24 90 -40q35 -14 104 -39q40 -16 100 -41q59 29 106 89q46 59 46 126q0 41 -20 78q-19 34 -49 59q-29 23 -79 49q-46 22 -91 40q-35 12 -104 39q-55 20 -102 41q-61 -32 -104 -90q-45 -58 -45 -125z" />
    <glyph glyph-name="dieresis" unicode="&#xa8;" horiz-adv-x="921" 
d="M180 1174q-37 36 -37 90q0 55 37 92q36 37 90 37q55 0 92 -37t37 -92q0 -54 -37 -90q-37 -37 -92 -37q-54 0 -90 37zM559 1174q-37 36 -37 90q0 55 37 92q36 37 90 37q55 0 92 -37t37 -92q0 -54 -37 -90q-37 -37 -92 -37q-54 0 -90 37z" />
    <glyph glyph-name="copyright" unicode="&#xa9;" horiz-adv-x="1720" 
d="M200 439q-57 134 -57 278q0 145 57 278t153 229t229 153q134 57 278 57t278 -57q133 -57 229 -153t153 -229t57 -278t-57 -278t-153 -229t-229 -153q-134 -57 -278 -57t-278 57q-133 57 -229 153t-153 229zM354 1010q-78 -135 -78 -293q0 -159 78 -292q78 -134 212 -212
t292 -78t293 78q133 76 213 212q78 133 78 292q0 158 -78 293q-80 134 -213 212q-135 78 -293 78t-292 -78t-212 -212zM479 723q0 173 113 292q112 118 282 118q146 0 265 -107l-80 -104q-91 71 -185 71q-106 0 -175 -76q-70 -76 -70 -194q0 -117 72 -194q71 -78 186 -78
q62 0 104 19q43 20 90 54l80 -106q-124 -107 -278 -107q-177 0 -290 119q-114 118 -114 293z" />
    <glyph glyph-name="ordfeminine" unicode="&#xaa;" horiz-adv-x="851" 
d="M196 895q-94 94 -94 231t94 232q94 96 222 96q110 0 184 -65v51h148v-627h-148v51q-74 -65 -184 -65q-128 0 -222 96zM308 1261q-54 -55 -54 -135q0 -78 54 -134q53 -56 132 -56q98 0 158 80v221q-60 80 -158 80q-79 0 -132 -56z" />
    <glyph glyph-name="guillemotleft" unicode="&#xab;" horiz-adv-x="1228" 
d="M438 102l-274 338v103l274 338h238l-316 -389l316 -390h-238zM909 102l-274 338v103l274 338h238l-316 -389l316 -390h-238z" />
    <glyph glyph-name="logicalnot" unicode="&#xac;" horiz-adv-x="1085" 
d="M799 625h-717v184h901v-553h-184v369z" />
    <glyph glyph-name="uni00AD" unicode="&#xad;" horiz-adv-x="942" 
d="M778 440h-614v164h614v-164z" />
    <glyph glyph-name="registered" unicode="&#xae;" horiz-adv-x="1720" 
d="M200 439q-57 134 -57 278q0 145 57 278t153 229t229 153q134 57 278 57t278 -57q133 -57 229 -153t153 -229t57 -278t-57 -278t-153 -229t-229 -153q-134 -57 -278 -57t-278 57q-133 57 -229 153t-153 229zM354 1010q-78 -135 -78 -293q0 -159 78 -292q78 -134 212 -212
t292 -78t293 78q133 76 213 212q78 133 78 292q0 158 -78 293q-80 134 -213 212q-135 78 -293 78t-292 -78t-212 -212zM768 330h-147v784h262q95 0 151 -47q84 -65 84 -170q0 -67 -41 -128q-42 -62 -106 -81l250 -358h-170l-244 348h-39v-348zM768 975v-158h102q58 0 80 25
q19 22 19 53q0 29 -19 51q-26 29 -80 29h-102z" />
    <glyph glyph-name="macron" unicode="&#xaf;" horiz-adv-x="901" 
d="M758 1178h-615v174h615v-174z" />
    <glyph glyph-name="degree" unicode="&#xb0;" horiz-adv-x="819" 
d="M179 895q-97 96 -97 231t97 232q96 96 231 96t231 -96q96 -98 96 -232q0 -135 -96 -231t-231 -96t-231 96zM246 1126q0 -67 48 -115t116 -48t116 48q47 47 47 115t-48 116t-115 48q-68 0 -116 -48t-48 -116z" />
    <glyph glyph-name="plusminus" unicode="&#xb1;" horiz-adv-x="1105" 
d="M1004 41h-902v184h902v-184zM461 563h-359v185h359v276h184v-276h359v-185h-359v-276h-184v276z" />
    <glyph glyph-name="uni00B2" unicode="&#xb2;" horiz-adv-x="636" 
d="M565 696h-504v82l279 312q68 74 68 124q0 40 -27 69q-27 28 -70 28q-38 0 -64 -25q-28 -25 -40 -67l-144 43q22 87 90 140q65 52 158 52q102 0 176 -68q74 -69 74 -172q0 -96 -88 -194l-162 -180h254v-144z" />
    <glyph glyph-name="uni00B3" unicode="&#xb3;" horiz-adv-x="620" 
d="M41 807l123 78q17 -29 50 -50q32 -20 69 -20q53 0 88 36q35 35 35 87q0 53 -34 90t-91 37q-41 0 -101 -23v82l125 166h-235v144h456v-82l-131 -181q72 -26 118 -90q46 -65 46 -143q0 -110 -79 -186t-197 -76q-81 0 -142 36q-62 35 -100 95z" />
    <glyph glyph-name="acute" unicode="&#xb4;" horiz-adv-x="634" 
d="M276 1126h-133l133 308h216z" />
    <glyph glyph-name="mu" unicode="&#xb5;" horiz-adv-x="1249" 
d="M369 -492h-195v1455h195v-523q0 -128 55 -192q70 -84 180 -84q154 0 277 137v662h194v-963h-188v88q-40 -39 -118 -74q-75 -34 -165 -34q-70 0 -136 29q-64 29 -99 63v-564z" />
    <glyph glyph-name="paragraph" unicode="&#xb6;" horiz-adv-x="1402" 
d="M61 993q0 109 49 203q48 92 132 154q117 84 301 84h757v-185h-204v-1659h-195v1659h-205v-1659h-194v963q-183 0 -312 129q-129 128 -129 311zM327 1175q-71 -76 -71 -182q0 -107 71 -181q71 -75 175 -75v512q-104 0 -175 -74z" />
    <glyph glyph-name="periodcentered" unicode="&#xb7;" horiz-adv-x="696" 
d="M247 380q-42 41 -42 101t42 102q41 42 101 42t102 -42t42 -102q0 -61 -42 -101q-42 -42 -102 -42t-101 42z" />
    <glyph glyph-name="cedilla" unicode="&#xb8;" horiz-adv-x="563" 
d="M358 -287h-215l144 307h133z" />
    <glyph glyph-name="uni00B9" unicode="&#xb9;" horiz-adv-x="481" 
d="M225 1241l-164 -76v154l226 115h92v-738h-154v545z" />
    <glyph glyph-name="ordmasculine" unicode="&#xba;" horiz-adv-x="851" 
d="M194 894q-92 95 -92 232q0 136 92 233q92 95 232 95t232 -95q92 -97 92 -233q0 -137 -92 -232t-232 -95t-232 95zM254 1124q0 -82 48 -134q46 -54 124 -54q77 0 125 54q47 53 47 134q0 83 -47 139q-48 54 -125 54q-78 0 -124 -54q-48 -55 -48 -139z" />
    <glyph glyph-name="guillemotright" unicode="&#xbb;" horiz-adv-x="1228" 
d="M319 102h-237l315 390l-315 389h237l275 -338v-103zM791 102h-238l315 390l-315 389h238l274 -338v-103z" />
    <glyph glyph-name="onequarter" unicode="&#xbc;" horiz-adv-x="1294" 
d="M225 1241l-164 -76v154l226 115h92v-738h-154v545zM309 0h-176l838 1434h176zM985 158h-330v82l392 497h92v-436h125v-143h-125v-158h-154v158zM985 436l-102 -135h102v135z" />
    <glyph glyph-name="onehalf" unicode="&#xbd;" horiz-adv-x="1384" 
d="M225 1241l-164 -76v154l226 115h92v-738h-154v545zM309 0h-176l838 1434h176zM1313 0h-504v82l278 311q68 74 68 125q0 39 -26 68q-27 28 -70 28q-37 0 -65 -25t-40 -67l-143 43q23 89 90 141q65 52 158 52q102 0 176 -68q74 -69 74 -172q0 -96 -88 -194l-162 -181h254
v-143z" />
    <glyph glyph-name="threequarters" unicode="&#xbe;" horiz-adv-x="1372" 
d="M41 807l123 78q17 -29 50 -50q32 -20 69 -20q53 0 88 36q35 35 35 87q0 53 -34 90t-91 37q-41 0 -101 -23v82l125 166h-235v144h456v-82l-131 -181q72 -26 118 -90q46 -65 46 -143q0 -110 -79 -186t-197 -76q-81 0 -142 36q-62 35 -100 95zM387 0h-176l838 1434h176z
M1063 158h-330v82l391 497h93v-436h124v-143h-124v-158h-154v158zM1063 436l-102 -135h102v135z" />
    <glyph glyph-name="questiondown" unicode="&#xbf;" horiz-adv-x="1024" 
d="M82 -139q0 62 20 122q19 56 51 100q30 40 69 79q34 34 76 66q54 41 70 54q32 24 51 48q19 23 19 45q0 39 -53 86l129 135q119 -89 119 -219q0 -52 -19 -96q-19 -46 -51 -79q-24 -27 -70 -65q-31 -25 -77 -60q-40 -32 -69 -61q-32 -32 -51 -70q-20 -42 -20 -85
q0 -79 58 -134t149 -55q81 0 145 46q64 44 79 110l184 -53q-32 -126 -145 -206q-114 -81 -263 -81q-171 0 -286 109t-115 264zM390 738q-42 42 -42 102t42 102q43 41 102 41t102 -41q41 -43 41 -102t-41 -102q-42 -42 -102 -42t-102 42z" />
    <glyph glyph-name="Agrave" unicode="&#xc0;" horiz-adv-x="1351" 
d="M223 0h-213l594 1434h144l593 -1434h-213l-151 369h-604zM604 1536l-215 307h215l133 -307h-133zM676 1096l-221 -533h442z" />
    <glyph glyph-name="Aacute" unicode="&#xc1;" horiz-adv-x="1351" 
d="M223 0h-213l594 1434h144l593 -1434h-213l-151 369h-604zM676 1096l-221 -533h442zM748 1536h-134l134 307h215z" />
    <glyph glyph-name="Acircumflex" unicode="&#xc2;" horiz-adv-x="1351" 
d="M223 0h-213l594 1434h144l593 -1434h-213l-151 369h-604zM502 1536h-133l194 307h225l195 -307h-133l-174 193zM676 1096l-221 -533h442z" />
    <glyph glyph-name="Atilde" unicode="&#xc3;" horiz-adv-x="1351" 
d="M223 0h-213l594 1434h144l593 -1434h-213l-151 369h-604zM461 1556l-133 43q3 95 60 159q57 65 147 65q42 0 96 -23q22 -9 100 -46q49 -23 82 -23q34 0 52 23q19 23 26 69l133 -43q-3 -94 -60 -159t-147 -65q-42 0 -96 23q-42 18 -100 47q-49 23 -82 23q-34 0 -52 -23
t-26 -70zM676 1096l-221 -533h442z" />
    <glyph glyph-name="Adieresis" unicode="&#xc4;" horiz-adv-x="1351" 
d="M223 0h-213l594 1434h144l593 -1434h-213l-151 369h-604zM395 1583q-37 36 -37 90q0 55 37 92q36 37 90 37q55 0 92 -37t37 -92q0 -54 -37 -90q-37 -37 -92 -37q-54 0 -90 37zM676 1096l-221 -533h442zM774 1583q-37 36 -37 90q0 55 37 92q36 37 90 37q55 0 92 -37
t37 -92q0 -54 -37 -90q-37 -37 -92 -37q-54 0 -90 37z" />
    <glyph glyph-name="Aring" unicode="&#xc5;" horiz-adv-x="1351" 
d="M223 0h-213l594 1434h144l593 -1434h-213l-151 369h-604zM676 1096l-221 -533h442zM531 1555q-60 60 -60 145t60 145t145 60t145 -60t60 -145t-60 -145t-145 -60t-145 60zM618 1758q-24 -24 -24 -58t24 -58t58 -24t58 24t24 58t-24 58t-58 24t-58 -24z" />
    <glyph glyph-name="AE" unicode="&#xc6;" horiz-adv-x="1863" 
d="M193 0h-234l856 1434h946v-195h-614v-369h471v-194h-471v-481h635v-195h-840v369h-528zM942 1260l-414 -697h414v697z" />
    <glyph glyph-name="Ccedilla" unicode="&#xc7;" horiz-adv-x="1413" 
d="M72 717q0 204 94 373q94 170 261 267q166 97 370 97q151 0 292 -59q137 -58 232 -162l-137 -135q-64 70 -170 117q-105 45 -217 45q-220 0 -370 -156q-151 -155 -151 -387q0 -158 71 -283q70 -124 194 -192q122 -68 274 -68q131 0 237 59q105 60 175 144l145 -131
q-88 -112 -223 -182q-136 -72 -287 -82l-53 -269h-215l127 273q-286 32 -467 235q-182 203 -182 496z" />
    <glyph glyph-name="Egrave" unicode="&#xc8;" horiz-adv-x="1105" 
d="M1024 0h-840v1434h820v-195h-615v-369h471v-194h-471v-481h635v-195zM553 1536l-215 307h215l133 -307h-133z" />
    <glyph glyph-name="Eacute" unicode="&#xc9;" horiz-adv-x="1105" 
d="M1024 0h-840v1434h820v-195h-615v-369h471v-194h-471v-481h635v-195zM655 1536h-133l133 307h215z" />
    <glyph glyph-name="Ecircumflex" unicode="&#xca;" horiz-adv-x="1105" 
d="M1024 0h-840v1434h820v-195h-615v-369h471v-194h-471v-481h635v-195zM420 1536h-133l194 307h226l194 -307h-133l-174 193z" />
    <glyph glyph-name="Edieresis" unicode="&#xcb;" horiz-adv-x="1105" 
d="M1024 0h-840v1434h820v-195h-615v-369h471v-194h-471v-481h635v-195zM313 1583q-37 36 -37 90q0 55 37 92q36 37 90 37q55 0 92 -37t37 -92q0 -54 -37 -90q-37 -37 -92 -37q-54 0 -90 37zM692 1583q-37 36 -37 90q0 55 37 92q36 37 90 37q55 0 92 -37t37 -92
q0 -54 -37 -90q-37 -37 -92 -37q-54 0 -90 37z" />
    <glyph glyph-name="Igrave" unicode="&#xcc;" horiz-adv-x="573" 
d="M236 1536l-216 307h216l133 -307h-133zM389 0h-205v1434h205v-1434z" />
    <glyph glyph-name="Iacute" unicode="&#xcd;" horiz-adv-x="573" 
d="M389 0h-205v1434h205v-1434zM338 1536h-133l133 307h215z" />
    <glyph glyph-name="Icircumflex" unicode="&#xce;" horiz-adv-x="573" 
d="M113 1536h-133l194 307h225l195 -307h-133l-174 193zM389 0h-205v1434h205v-1434z" />
    <glyph glyph-name="Idieresis" unicode="&#xcf;" horiz-adv-x="573" 
d="M6 1583q-37 36 -37 90q0 55 37 92q36 37 90 37q55 0 92 -37t37 -92q0 -54 -37 -90q-37 -37 -92 -37q-54 0 -90 37zM389 0h-205v1434h205v-1434zM385 1583q-37 36 -37 90q0 55 37 92q36 37 90 37q55 0 92 -37t37 -92q0 -54 -37 -90q-37 -37 -92 -37q-54 0 -90 37z" />
    <glyph glyph-name="Eth" unicode="&#xd0;" horiz-adv-x="1464" 
d="M184 676h-204v194h204v564h430q308 0 492 -136q135 -102 211 -252q76 -152 76 -329q0 -178 -76 -330q-77 -154 -209 -252q-184 -135 -494 -135h-430v676zM389 676v-481h215q146 0 243 30q96 28 167 90q81 71 128 178q46 104 46 224t-46 224q-47 105 -128 177
q-70 61 -167 91t-243 30h-215v-369h410v-194h-410z" />
    <glyph glyph-name="Ntilde" unicode="&#xd1;" horiz-adv-x="1576" 
d="M389 0h-205v1434h144l860 -1053v1053h205v-1434h-144l-860 1053v-1053zM571 1556l-133 43q3 95 60 159q57 65 147 65q43 0 97 -23q22 -9 100 -46q49 -23 82 -23q34 0 52 23q18 24 25 69l134 -43q-3 -94 -60 -159t-147 -65q-42 0 -96 23q-49 21 -101 47q-49 23 -82 23
q-34 0 -52 -23t-26 -70z" />
    <glyph glyph-name="Ograve" unicode="&#xd2;" horiz-adv-x="1576" 
d="M127 426q-55 135 -55 291t55 291q56 138 150 235t228 154q133 57 283 57q200 0 365 -96q164 -98 258 -266q94 -169 94 -375t-94 -375t-258 -265q-164 -97 -365 -97q-149 0 -283 57q-133 57 -228 155t-150 234zM276 717q0 -233 146 -388t366 -155t366 155t146 388
q0 231 -146 388q-147 155 -366 155t-365 -155q-147 -156 -147 -388zM727 1536l-215 307h215l133 -307h-133z" />
    <glyph glyph-name="Oacute" unicode="&#xd3;" horiz-adv-x="1576" 
d="M127 426q-55 135 -55 291t55 291q56 138 150 235t228 154q133 57 283 57q200 0 365 -96q164 -98 258 -266q94 -169 94 -375t-94 -375t-258 -265q-164 -97 -365 -97q-149 0 -283 57q-133 57 -228 155t-150 234zM276 717q0 -233 146 -388t366 -155t366 155t146 388
q0 231 -146 388q-147 155 -366 155t-365 -155q-147 -156 -147 -388zM850 1536h-133l133 307h215z" />
    <glyph glyph-name="Ocircumflex" unicode="&#xd4;" horiz-adv-x="1576" 
d="M127 426q-55 135 -55 291t55 291q56 138 150 235t228 154q133 57 283 57q200 0 365 -96q164 -98 258 -266q94 -169 94 -375t-94 -375t-258 -265q-164 -97 -365 -97q-149 0 -283 57q-133 57 -228 155t-150 234zM276 717q0 -233 146 -388t366 -155t366 155t146 388
q0 231 -146 388q-147 155 -366 155t-365 -155q-147 -156 -147 -388zM614 1536h-133l195 307h225l195 -307h-133l-175 193z" />
    <glyph glyph-name="Otilde" unicode="&#xd5;" horiz-adv-x="1576" 
d="M127 426q-55 135 -55 291t55 291q56 138 150 235t228 154q133 57 283 57q200 0 365 -96q164 -98 258 -266q94 -169 94 -375t-94 -375t-258 -265q-164 -97 -365 -97q-149 0 -283 57q-133 57 -228 155t-150 234zM276 717q0 -233 146 -388t366 -155t366 155t146 388
q0 231 -146 388q-147 155 -366 155t-365 -155q-147 -156 -147 -388zM573 1556l-133 43q3 95 60 159q57 65 147 65q43 0 97 -23q22 -9 100 -46q49 -23 82 -23q34 0 52 23q19 23 26 69l133 -43q-3 -94 -60 -159t-147 -65q-42 0 -96 23q-49 21 -101 47q-49 23 -82 23
q-34 0 -52 -23t-26 -70z" />
    <glyph glyph-name="Odieresis" unicode="&#xd6;" horiz-adv-x="1576" 
d="M127 426q-55 135 -55 291t55 291q56 138 150 235t228 154q133 57 283 57q200 0 365 -96q164 -98 258 -266q94 -169 94 -375t-94 -375t-258 -265q-164 -97 -365 -97q-149 0 -283 57q-133 57 -228 155t-150 234zM276 717q0 -233 146 -388t366 -155t366 155t146 388
q0 231 -146 388q-147 155 -366 155t-365 -155q-147 -156 -147 -388zM508 1583q-37 36 -37 90q0 55 37 92q36 37 90 37q55 0 92 -37t37 -92q0 -54 -37 -90q-37 -37 -92 -37q-54 0 -90 37zM887 1583q-37 36 -37 90q0 55 37 92q36 37 90 37q55 0 92 -37t37 -92q0 -54 -37 -90
q-37 -37 -92 -37q-54 0 -90 37z" />
    <glyph glyph-name="multiply" unicode="&#xd7;" horiz-adv-x="1122" 
d="M264 104l-131 132l297 296l-297 297l131 132l297 -297l297 297l131 -132l-297 -297l297 -296l-131 -132l-297 297z" />
    <glyph glyph-name="Oslash" unicode="&#xd8;" horiz-adv-x="1576" 
d="M291 -20h-246l205 241q-178 202 -178 496q0 156 55 291q56 138 150 235t228 154q133 57 283 57q220 0 398 -119l100 119h244l-203 -244q178 -206 178 -493q0 -206 -94 -375t-258 -265q-164 -97 -365 -97q-219 0 -397 116zM276 717q0 -195 105 -338l678 803
q-125 78 -271 78q-219 0 -365 -155q-147 -156 -147 -388zM1194 1055l-676 -805q121 -76 270 -76q220 0 366 155t146 388q0 196 -106 338z" />
    <glyph glyph-name="Ugrave" unicode="&#xd9;" horiz-adv-x="1515" 
d="M164 594v840h205v-850q0 -184 90 -283q114 -127 299 -127t299 127q90 99 90 283v850h205v-840q0 -262 -150 -426q-82 -88 -198 -138q-117 -50 -246 -50t-246 50t-199 138q-149 163 -149 426zM696 1536l-215 307h215l133 -307h-133z" />
    <glyph glyph-name="Uacute" unicode="&#xda;" horiz-adv-x="1515" 
d="M164 594v840h205v-850q0 -184 90 -283q114 -127 299 -127t299 127q90 99 90 283v850h205v-840q0 -262 -150 -426q-82 -88 -198 -138q-117 -50 -246 -50t-246 50t-199 138q-149 163 -149 426zM819 1536h-133l133 307h215z" />
    <glyph glyph-name="Ucircumflex" unicode="&#xdb;" horiz-adv-x="1515" 
d="M164 594v840h205v-850q0 -184 90 -283q114 -127 299 -127t299 127q90 99 90 283v850h205v-840q0 -262 -150 -426q-82 -88 -198 -138q-117 -50 -246 -50t-246 50t-199 138q-149 163 -149 426zM584 1536h-133l194 307h225l195 -307h-133l-174 193z" />
    <glyph glyph-name="Udieresis" unicode="&#xdc;" horiz-adv-x="1515" 
d="M164 594v840h205v-850q0 -184 90 -283q114 -127 299 -127t299 127q90 99 90 283v850h205v-840q0 -262 -150 -426q-82 -88 -198 -138q-117 -50 -246 -50t-246 50t-199 138q-149 163 -149 426zM477 1583q-37 36 -37 90q0 55 37 92q36 37 90 37q55 0 92 -37t37 -92
q0 -54 -37 -90q-37 -37 -92 -37q-54 0 -90 37zM856 1583q-37 36 -37 90q0 55 37 92q36 37 90 37q55 0 92 -37t37 -92q0 -54 -37 -90q-37 -37 -92 -37q-54 0 -90 37z" />
    <glyph glyph-name="Yacute" unicode="&#xdd;" horiz-adv-x="1228" 
d="M512 655l-492 779h230l364 -576l365 576h229l-491 -779v-655h-205v655zM676 1536h-133l133 307h215z" />
    <glyph glyph-name="Thorn" unicode="&#xde;" horiz-adv-x="1228" 
d="M389 0h-205v1434h205v-318h338q187 0 299 -94q67 -58 104 -136t37 -169t-37 -169t-104 -136q-113 -95 -299 -95h-338v-317zM389 922v-410h328q128 0 188 63q58 61 58 142q0 80 -58 141q-61 64 -188 64h-328z" />
    <glyph glyph-name="germandbls" unicode="&#xdf;" horiz-adv-x="1208" 
d="M369 0h-195v1044q0 189 100 299q57 63 135 97q81 35 169 35q166 0 285 -114q118 -115 118 -276q0 -71 -29 -141q-28 -69 -80 -115q111 -59 178 -164q66 -107 66 -235q0 -123 -58 -226t-162 -163q-103 -61 -230 -61q-106 0 -197 45l74 161q51 -22 108 -22q117 0 192 77
t75 189q0 104 -70 180q-80 86 -238 86h-78v185h9q119 0 178 53q67 60 67 151q0 84 -58 145q-59 60 -142 60q-105 0 -164 -71q-53 -61 -53 -175v-1044z" />
    <glyph glyph-name="agrave" unicode="&#xe0;" 
d="M159 225q-67 115 -67 256q0 140 68 258q68 117 180 183q103 61 235 61q177 0 302 -109v89h188v-963h-188v88q-120 -108 -297 -108q-136 0 -242 63q-111 65 -179 182zM287 481q0 -132 91 -224q92 -93 228 -93q74 0 145 36q68 35 119 101v361q-47 62 -118 100
q-71 37 -156 37q-137 0 -222 -94q-87 -95 -87 -224zM629 1126l-215 308h215l133 -308h-133z" />
    <glyph glyph-name="aacute" unicode="&#xe1;" 
d="M159 225q-67 115 -67 256q0 140 68 258q68 117 180 183q103 61 235 61q177 0 302 -109v89h188v-963h-188v88q-120 -108 -297 -108q-136 0 -242 63q-111 65 -179 182zM287 481q0 -132 91 -224q92 -93 228 -93q74 0 145 36q68 35 119 101v361q-47 62 -118 100
q-71 37 -156 37q-137 0 -222 -94q-87 -95 -87 -224zM649 1126h-133l133 308h215z" />
    <glyph glyph-name="acircumflex" unicode="&#xe2;" 
d="M159 225q-67 115 -67 256q0 140 68 258q68 117 180 183q103 61 235 61q177 0 302 -109v89h188v-963h-188v88q-120 -108 -297 -108q-136 0 -242 63q-111 65 -179 182zM287 481q0 -132 91 -224q92 -93 228 -93q74 0 145 36q68 35 119 101v361q-47 62 -118 100
q-71 37 -156 37q-137 0 -222 -94q-87 -95 -87 -224zM455 1126h-133l194 308h225l195 -308h-133l-174 193z" />
    <glyph glyph-name="atilde" unicode="&#xe3;" 
d="M159 225q-67 115 -67 256q0 140 68 258q68 117 180 183q103 61 235 61q177 0 302 -109v89h188v-963h-188v88q-120 -108 -297 -108q-136 0 -242 63q-111 65 -179 182zM401 1147l-133 43q3 94 60 159q57 64 147 64q43 0 97 -23q22 -9 100 -46q49 -23 82 -23q34 0 52 23
q18 24 25 69l134 -43q-3 -93 -60 -158t-147 -65q-42 0 -96 23q-33 14 -101 46q-49 23 -82 23q-34 0 -52 -23q-19 -23 -26 -69zM287 481q0 -132 91 -224q92 -93 228 -93q74 0 145 36q68 35 119 101v361q-47 62 -118 100q-71 37 -156 37q-137 0 -222 -94q-87 -95 -87 -224z
" />
    <glyph glyph-name="adieresis" unicode="&#xe4;" 
d="M159 225q-67 115 -67 256q0 140 68 258q68 117 180 183q103 61 235 61q177 0 302 -109v89h188v-963h-188v88q-120 -108 -297 -108q-136 0 -242 63q-111 65 -179 182zM287 481q0 -132 91 -224q92 -93 228 -93q74 0 145 36q68 35 119 101v361q-47 62 -118 100
q-71 37 -156 37q-137 0 -222 -94q-87 -95 -87 -224zM328 1174q-37 36 -37 90q0 55 37 92q36 37 90 37q55 0 92 -37t37 -92q0 -54 -37 -90q-37 -37 -92 -37q-54 0 -90 37zM707 1174q-37 36 -37 90q0 55 37 92q36 37 90 37q55 0 92 -37t37 -92q0 -54 -37 -90q-37 -37 -92 -37
q-54 0 -90 37z" />
    <glyph glyph-name="aring" unicode="&#xe5;" 
d="M159 225q-67 115 -67 256q0 140 68 258q68 117 180 183q103 61 235 61q177 0 302 -109v89h188v-963h-188v88q-120 -108 -297 -108q-136 0 -242 63q-111 65 -179 182zM287 481q0 -132 91 -224q92 -93 228 -93q74 0 145 36q68 35 119 101v361q-47 62 -118 100
q-71 37 -156 37q-137 0 -222 -94q-87 -95 -87 -224zM463 1145q-60 60 -60 145t60 145t145 60t145 -60t60 -145t-60 -145t-145 -60t-145 60zM550 1348q-24 -24 -24 -58t24 -58t58 -24t58 24t24 58t-24 58t-58 24t-58 -24z" />
    <glyph glyph-name="ae" unicode="&#xe6;" horiz-adv-x="1902" 
d="M159 225q-67 115 -67 256q0 140 68 258q68 117 180 183q103 61 235 61q177 0 302 -109v89h172v-89q121 109 288 109q197 0 335 -145q138 -146 138 -357q0 -17 -2 -41h-751q11 -123 104 -206q91 -84 223 -84q152 0 271 131l127 -121q-62 -77 -161 -128q-100 -52 -232 -52
q-200 0 -340 131v-111h-172v88q-120 -108 -297 -108q-136 0 -242 63q-111 65 -179 182zM287 481q0 -132 91 -224q92 -93 228 -93q74 0 145 36q68 35 119 101v361q-47 62 -118 100q-71 37 -156 37q-137 0 -222 -94q-87 -95 -87 -224zM1067 604h541q-23 92 -97 151
q-74 58 -165 58q-98 0 -175 -58q-79 -59 -104 -151z" />
    <glyph glyph-name="ccedilla" unicode="&#xe7;" horiz-adv-x="1085" 
d="M92 481q0 213 143 358q143 144 359 144q123 0 233 -56q108 -57 177 -153l-144 -121q-45 62 -113 105q-68 41 -153 41q-131 0 -219 -91t-88 -227q0 -139 90 -228q91 -89 229 -89q168 0 279 149l149 -108q-53 -87 -149 -146q-95 -59 -209 -73l-53 -273h-215l124 273
q-194 23 -317 161t-123 334z" />
    <glyph glyph-name="egrave" unicode="&#xe8;" horiz-adv-x="1116" 
d="M92 481q0 218 133 360q132 142 336 142q200 0 332 -143q131 -145 131 -359q0 -17 -2 -41h-741q7 -121 97 -206q88 -84 214 -84q96 0 160 36q63 36 116 95l127 -121q-63 -78 -164 -128q-103 -52 -241 -52t-253 65q-116 65 -179 179q-66 116 -66 257zM297 604h524
q-23 92 -94 150q-74 59 -160 59q-95 0 -169 -58q-75 -58 -101 -151zM537 1126l-215 308h215l133 -308h-133z" />
    <glyph glyph-name="eacute" unicode="&#xe9;" horiz-adv-x="1116" 
d="M92 481q0 218 133 360q132 142 336 142q200 0 332 -143q131 -145 131 -359q0 -17 -2 -41h-741q7 -121 97 -206q88 -84 214 -84q96 0 160 36q63 36 116 95l127 -121q-63 -78 -164 -128q-103 -52 -241 -52t-253 65q-116 65 -179 179q-66 116 -66 257zM297 604h524
q-23 92 -94 150q-74 59 -160 59q-95 0 -169 -58q-75 -58 -101 -151zM618 1126h-133l133 308h216z" />
    <glyph glyph-name="ecircumflex" unicode="&#xea;" horiz-adv-x="1116" 
d="M92 481q0 218 133 360q132 142 336 142q200 0 332 -143q131 -145 131 -359q0 -17 -2 -41h-741q7 -121 97 -206q88 -84 214 -84q96 0 160 36q63 36 116 95l127 -121q-63 -78 -164 -128q-103 -52 -241 -52t-253 65q-116 65 -179 179q-66 116 -66 257zM393 1126h-133
l195 308h225l194 -308h-133l-174 193zM297 604h524q-23 92 -94 150q-74 59 -160 59q-95 0 -169 -58q-75 -58 -101 -151z" />
    <glyph glyph-name="edieresis" unicode="&#xeb;" horiz-adv-x="1116" 
d="M92 481q0 218 133 360q132 142 336 142q200 0 332 -143q131 -145 131 -359q0 -17 -2 -41h-741q7 -121 97 -206q88 -84 214 -84q96 0 160 36q63 36 116 95l127 -121q-63 -78 -164 -128q-103 -52 -241 -52t-253 65q-116 65 -179 179q-66 116 -66 257zM277 1174
q-37 36 -37 90q0 55 37 92q36 37 90 37q55 0 92 -37t37 -92q0 -54 -37 -90q-37 -37 -92 -37q-54 0 -90 37zM297 604h524q-23 92 -94 150q-74 59 -160 59q-95 0 -169 -58q-75 -58 -101 -151zM655 1174q-37 36 -37 90q0 55 37 92q36 37 90 37q55 0 92 -37t37 -92
q0 -54 -37 -90q-37 -37 -92 -37q-54 0 -90 37z" />
    <glyph glyph-name="igrave" unicode="&#xec;" horiz-adv-x="542" 
d="M236 1126l-216 308h216l133 -308h-133zM369 0h-195v963h195v-963z" />
    <glyph glyph-name="iacute" unicode="&#xed;" horiz-adv-x="542" 
d="M369 0h-195v963h195v-963zM307 1126h-133l133 308h215z" />
    <glyph glyph-name="icircumflex" unicode="&#xee;" horiz-adv-x="542" 
d="M96 1126h-133l195 308h225l195 -308h-134l-174 193zM369 0h-195v963h195v-963z" />
    <glyph glyph-name="idieresis" unicode="&#xef;" horiz-adv-x="542" 
d="M-10 1174q-37 36 -37 90q0 55 37 92q36 37 90 37q55 0 92 -37t37 -92q0 -54 -37 -90q-37 -37 -92 -37q-54 0 -90 37zM369 0h-195v963h195v-963zM369 1174q-37 36 -37 90q0 55 37 92q36 37 90 37q55 0 92 -37t37 -92q0 -54 -37 -90q-37 -37 -92 -37q-54 0 -90 37z" />
    <glyph glyph-name="eth" unicode="&#xf0;" horiz-adv-x="1179" 
d="M92 481q0 137 64 252q63 116 178 183t256 67q19 0 47 -4l-100 151l-164 -104l-92 139l163 105l-120 184h227l53 -84l164 105l92 -140l-164 -104l246 -369q145 -220 145 -381q0 -138 -64 -251q-64 -114 -178 -182q-116 -68 -255 -68q-213 0 -355 145q-143 146 -143 356z
M373 707q-86 -92 -86 -226q0 -133 86 -225t217 -92q132 0 218 92q85 91 85 225q0 63 -29 139q-30 75 -78 132q-89 47 -196 47q-131 0 -217 -92z" />
    <glyph glyph-name="ntilde" unicode="&#xf1;" horiz-adv-x="1249" 
d="M369 0h-195v963h188v-93q46 44 122 80q73 33 167 33q105 0 196 -45q92 -47 154 -125q95 -122 95 -342v-471h-195v481q0 153 -57 224q-34 43 -87 69q-51 25 -112 25q-163 0 -276 -137v-662zM422 1147l-133 43q3 94 60 159q57 64 147 64q42 0 96 -23q22 -9 100 -46
q49 -23 82 -23q34 0 52 23q19 23 26 69l133 -43q-3 -93 -60 -158t-147 -65q-42 0 -96 23q-22 9 -100 46q-49 23 -82 23q-34 0 -52 -23q-19 -23 -26 -69z" />
    <glyph glyph-name="ograve" unicode="&#xf2;" horiz-adv-x="1179" 
d="M234 123q-142 142 -142 358t142 359q143 143 356 143t356 -143q141 -144 141 -359t-141 -358q-143 -143 -356 -143t-356 143zM373 707q-86 -92 -86 -226q0 -133 86 -225t217 -92q132 0 218 92q85 91 85 225q0 135 -85 226q-86 92 -218 92q-131 0 -217 -92zM528 1126
l-215 308h215l134 -308h-134z" />
    <glyph glyph-name="oacute" unicode="&#xf3;" horiz-adv-x="1179" 
d="M234 123q-142 142 -142 358t142 359q143 143 356 143t356 -143q141 -144 141 -359t-141 -358q-143 -143 -356 -143t-356 143zM373 707q-86 -92 -86 -226q0 -133 86 -225t217 -92q132 0 218 92q85 91 85 225q0 135 -85 226q-86 92 -218 92q-131 0 -217 -92zM651 1126h-133
l133 308h215z" />
    <glyph glyph-name="ocircumflex" unicode="&#xf4;" horiz-adv-x="1179" 
d="M234 123q-142 142 -142 358t142 359q143 143 356 143t356 -143q141 -144 141 -359t-141 -358q-143 -143 -356 -143t-356 143zM416 1126h-133l194 308h225l195 -308h-133l-174 193zM373 707q-86 -92 -86 -226q0 -133 86 -225t217 -92q132 0 218 92q85 91 85 225
q0 135 -85 226q-86 92 -218 92q-131 0 -217 -92z" />
    <glyph glyph-name="otilde" unicode="&#xf5;" horiz-adv-x="1179" 
d="M234 123q-142 142 -142 358t142 359q143 143 356 143t356 -143q141 -144 141 -359t-141 -358q-143 -143 -356 -143t-356 143zM377 1147l-133 43q3 94 60 159q57 64 147 64q42 0 96 -23q22 -9 100 -46q49 -23 82 -23q34 0 52 23q19 23 26 69l133 -43q-3 -93 -60 -158
t-147 -65q-42 0 -96 23q-22 9 -100 46q-49 23 -82 23q-34 0 -52 -23q-19 -23 -26 -69zM373 707q-86 -92 -86 -226q0 -133 86 -225t217 -92q132 0 218 92q85 91 85 225q0 135 -85 226q-86 92 -218 92q-131 0 -217 -92z" />
    <glyph glyph-name="odieresis" unicode="&#xf6;" horiz-adv-x="1179" 
d="M234 123q-142 142 -142 358t142 359q143 143 356 143t356 -143q141 -144 141 -359t-141 -358q-143 -143 -356 -143t-356 143zM309 1174q-37 36 -37 90q0 55 37 92q36 37 90 37q55 0 92 -37t37 -92q0 -54 -37 -90q-37 -37 -92 -37q-54 0 -90 37zM373 707q-86 -92 -86 -226
q0 -133 86 -225t217 -92q132 0 218 92q85 91 85 225q0 135 -85 226q-86 92 -218 92q-131 0 -217 -92zM688 1174q-37 36 -37 90q0 55 37 92q36 37 90 37q55 0 92 -37t37 -92q0 -54 -37 -90q-37 -37 -92 -37q-54 0 -90 37z" />
    <glyph glyph-name="divide" unicode="&#xf7;" horiz-adv-x="1105" 
d="M1004 440h-902v185h902v-185zM452 103q-42 42 -42 102t42 102q41 41 101 41q59 0 102 -41q41 -43 41 -102t-41 -102q-42 -42 -102 -42q-61 0 -101 42zM452 759q-42 41 -42 101t42 102q40 42 101 42q60 0 102 -42q41 -43 41 -102q0 -60 -41 -101q-42 -42 -102 -42
q-61 0 -101 42z" />
    <glyph glyph-name="oslash" unicode="&#xf8;" horiz-adv-x="1179" 
d="M285 -20h-230l148 176q-111 137 -111 325q0 216 142 359q143 143 356 143q134 0 252 -65l57 65h227l-151 -178q112 -137 112 -324q0 -215 -141 -358q-143 -143 -356 -143q-141 0 -252 63zM287 481q0 -95 45 -172l387 461q-64 29 -129 29q-131 0 -217 -92t-86 -226z
M848 651l-387 -461q61 -26 129 -26q132 0 218 92q85 91 85 225q0 93 -45 170z" />
    <glyph glyph-name="ugrave" unicode="&#xf9;" horiz-adv-x="1228" 
d="M154 471v492h194v-523q0 -128 55 -192q32 -38 83 -61t104 -23q82 0 152 40t118 97v662h195v-963h-189v88q-40 -39 -117 -74q-75 -34 -165 -34q-104 0 -191 43q-90 42 -151 118q-45 57 -66 134q-22 75 -22 196zM563 1126l-215 308h215l133 -308h-133z" />
    <glyph glyph-name="uacute" unicode="&#xfa;" horiz-adv-x="1228" 
d="M154 471v492h194v-523q0 -128 55 -192q32 -38 83 -61t104 -23q82 0 152 40t118 97v662h195v-963h-189v88q-40 -39 -117 -74q-75 -34 -165 -34q-104 0 -191 43q-90 42 -151 118q-45 57 -66 134q-22 75 -22 196zM666 1126h-134l134 308h215z" />
    <glyph glyph-name="ucircumflex" unicode="&#xfb;" horiz-adv-x="1228" 
d="M154 471v492h194v-523q0 -128 55 -192q32 -38 83 -61t104 -23q82 0 152 40t118 97v662h195v-963h-189v88q-40 -39 -117 -74q-75 -34 -165 -34q-104 0 -191 43q-90 42 -151 118q-45 57 -66 134q-22 75 -22 196zM430 1126h-133l195 308h225l194 -308h-133l-174 193z" />
    <glyph glyph-name="udieresis" unicode="&#xfc;" horiz-adv-x="1228" 
d="M154 471v492h194v-523q0 -128 55 -192q32 -38 83 -61t104 -23q82 0 152 40t118 97v662h195v-963h-189v88q-40 -39 -117 -74q-75 -34 -165 -34q-104 0 -191 43q-90 42 -151 118q-45 57 -66 134q-22 75 -22 196zM324 1174q-37 36 -37 90q0 55 37 92q36 37 90 37
q55 0 92 -37t37 -92q0 -54 -37 -90q-37 -37 -92 -37q-54 0 -90 37zM703 1174q-37 36 -37 90q0 55 37 92q36 37 90 37q55 0 92 -37t37 -92q0 -54 -37 -90q-37 -37 -92 -37q-54 0 -90 37z" />
    <glyph glyph-name="yacute" unicode="&#xfd;" horiz-adv-x="1042" 
d="M432 100l-412 863h209l301 -635l277 635h205l-633 -1455h-207zM588 1126h-133l133 308h215z" />
    <glyph glyph-name="thorn" unicode="&#xfe;" 
d="M369 -492h-195v1946h195v-575q125 104 295 104q132 0 235 -61q113 -66 180 -183q68 -118 68 -258q0 -141 -67 -256q-68 -117 -179 -182q-107 -63 -242 -63q-171 0 -290 104v-576zM369 662v-361q51 -66 119 -101q70 -36 145 -36q137 0 228 93q91 92 91 224q0 129 -86 224
q-87 94 -223 94q-85 0 -155 -37q-72 -37 -119 -100z" />
    <glyph glyph-name="ydieresis" unicode="&#xff;" horiz-adv-x="1042" 
d="M432 100l-412 863h209l301 -635l277 635h205l-633 -1455h-207zM229 1174q-36 36 -36 90t36 92q36 37 90 37q55 0 92 -37q38 -38 38 -92t-38 -90q-37 -37 -92 -37q-54 0 -90 37zM608 1174q-37 36 -37 90q0 55 37 92q36 37 90 37q55 0 92 -37t37 -92q0 -54 -37 -90
q-37 -37 -92 -37q-54 0 -90 37z" />
    <glyph glyph-name="OE" unicode="&#x152;" horiz-adv-x="2222" 
d="M127 426q-55 135 -55 291t55 291q56 138 150 235t228 154q133 57 283 57q152 0 283 -58q133 -59 229 -161v199h820v-195h-615v-369h471v-194h-471v-481h635v-195h-840v199q-98 -104 -228 -161q-131 -58 -284 -58q-149 0 -283 57q-133 57 -228 155t-150 234zM276 717
q0 -233 146 -388t366 -155t366 155t146 388q0 231 -146 388q-147 155 -366 155t-365 -155q-147 -156 -147 -388z" />
    <glyph glyph-name="oe" unicode="&#x153;" horiz-adv-x="1916" 
d="M234 123q-142 142 -142 358t142 359q143 143 356 143q122 0 226 -54q103 -54 169 -147q61 94 159 148q98 53 218 53q200 0 332 -143q131 -145 131 -359q0 -17 -2 -41h-742q8 -122 98 -206q89 -84 214 -84q95 0 160 36q63 36 116 95l127 -121q-63 -78 -164 -128
q-103 -52 -241 -52q-128 0 -231 55q-106 54 -171 151q-64 -95 -168 -151q-103 -55 -231 -55q-213 0 -356 143zM373 707q-86 -92 -86 -226q0 -133 86 -225t217 -92q132 0 218 92q85 91 85 225q0 135 -85 226q-86 92 -218 92q-131 0 -217 -92zM1098 604h524q-23 92 -94 150
q-74 59 -160 59q-95 0 -169 -58q-75 -58 -101 -151z" />
    <glyph glyph-name="Ydieresis" unicode="&#x178;" horiz-adv-x="1228" 
d="M512 655l-492 779h230l364 -576l365 576h229l-491 -779v-655h-205v655zM334 1583q-37 36 -37 90q0 55 37 92q36 37 90 37q55 0 92 -37t37 -92q0 -54 -37 -90q-37 -37 -92 -37q-54 0 -90 37zM713 1583q-37 36 -37 90q0 55 37 92q36 37 90 37q55 0 92 -37t37 -92
q0 -54 -37 -90q-37 -37 -92 -37q-54 0 -90 37z" />
    <glyph glyph-name="circumflex" unicode="&#x2c6;" horiz-adv-x="901" 
d="M276 1126h-133l195 308h225l195 -308h-133l-174 193z" />
    <glyph glyph-name="tilde" unicode="&#x2dc;" horiz-adv-x="983" 
d="M276 1147l-133 43q3 94 60 159q57 64 147 64q43 0 97 -23q22 -9 100 -46q49 -23 82 -23q34 0 52 23q19 23 26 69l133 -43q-3 -93 -60 -158t-147 -65q-42 0 -96 23q-33 14 -101 46q-49 23 -82 23q-34 0 -52 -23q-19 -23 -26 -69z" />
    <glyph glyph-name="uni2000" unicode="&#x2000;" horiz-adv-x="952" 
 />
    <glyph glyph-name="uni2001" unicode="&#x2001;" horiz-adv-x="1905" 
 />
    <glyph glyph-name="uni2002" unicode="&#x2002;" horiz-adv-x="952" 
 />
    <glyph glyph-name="uni2003" unicode="&#x2003;" horiz-adv-x="1905" 
 />
    <glyph glyph-name="uni2004" unicode="&#x2004;" horiz-adv-x="635" 
 />
    <glyph glyph-name="uni2005" unicode="&#x2005;" horiz-adv-x="476" 
 />
    <glyph glyph-name="uni2006" unicode="&#x2006;" horiz-adv-x="317" 
 />
    <glyph glyph-name="uni2007" unicode="&#x2007;" horiz-adv-x="317" 
 />
    <glyph glyph-name="uni2008" unicode="&#x2008;" horiz-adv-x="238" 
 />
    <glyph glyph-name="uni2009" unicode="&#x2009;" horiz-adv-x="381" 
 />
    <glyph glyph-name="uni200A" unicode="&#x200a;" horiz-adv-x="105" 
 />
    <glyph glyph-name="uni2010" unicode="&#x2010;" horiz-adv-x="942" 
d="M778 440h-614v164h614v-164z" />
    <glyph glyph-name="uni2011" unicode="&#x2011;" horiz-adv-x="942" 
d="M778 440h-614v164h614v-164z" />
    <glyph glyph-name="figuredash" unicode="&#x2012;" horiz-adv-x="942" 
d="M778 440h-614v164h614v-164z" />
    <glyph glyph-name="endash" unicode="&#x2013;" horiz-adv-x="1003" 
d="M963 440h-922v164h922v-164z" />
    <glyph glyph-name="emdash" unicode="&#x2014;" horiz-adv-x="1617" 
d="M1577 440h-1536v164h1536v-164z" />
    <glyph glyph-name="quoteleft" unicode="&#x2018;" horiz-adv-x="583" 
d="M328 922h-226l246 532h133z" />
    <glyph glyph-name="quoteright" unicode="&#x2019;" horiz-adv-x="583" 
d="M236 922h-134l154 532h225z" />
    <glyph glyph-name="quotesinglbase" unicode="&#x201a;" horiz-adv-x="583" 
d="M236 -287h-134l154 533h225z" />
    <glyph glyph-name="quotedblleft" unicode="&#x201c;" horiz-adv-x="1013" 
d="M328 922h-226l246 532h133zM758 922h-226l246 532h133z" />
    <glyph glyph-name="quotedblright" unicode="&#x201d;" horiz-adv-x="1013" 
d="M236 922h-134l154 532h225zM666 922h-134l154 532h225z" />
    <glyph glyph-name="quotedblbase" unicode="&#x201e;" horiz-adv-x="1013" 
d="M236 -287h-134l154 533h225zM666 -287h-134l154 533h225z" />
    <glyph glyph-name="bullet" unicode="&#x2022;" horiz-adv-x="1146" 
d="M284 192q-120 120 -120 289t120 290q120 120 289 120t290 -120q120 -122 120 -290q0 -169 -120 -289q-121 -120 -290 -120t-289 120z" />
    <glyph glyph-name="ellipsis" unicode="&#x2026;" horiz-adv-x="1904" 
d="M267 22q-42 41 -42 101t42 102q43 41 102 41t102 -41q41 -43 41 -102q0 -60 -41 -101q-42 -42 -102 -42t-102 42zM871 22q-42 40 -42 101q0 60 42 102q43 41 102 41t102 -41q41 -43 41 -102q0 -60 -41 -101q-42 -42 -102 -42t-102 42zM1476 22q-42 40 -42 101
q0 60 42 102q41 41 101 41q59 0 102 -41q41 -43 41 -102q0 -60 -41 -101q-42 -42 -102 -42q-61 0 -101 42z" />
    <glyph glyph-name="uni202F" unicode="&#x202f;" horiz-adv-x="381" 
 />
    <glyph glyph-name="guilsinglleft" unicode="&#x2039;" horiz-adv-x="757" 
d="M438 102l-274 338v103l274 338h238l-316 -389l316 -390h-238z" />
    <glyph glyph-name="guilsinglright" unicode="&#x203a;" horiz-adv-x="757" 
d="M319 102h-237l315 390l-315 389h237l275 -338v-103z" />
    <glyph glyph-name="uni205F" unicode="&#x205f;" horiz-adv-x="476" 
 />
    <glyph glyph-name="Euro" unicode="&#x20ac;" horiz-adv-x="1187" 
d="M147 471h-167v174h139q-2 30 -2 72q0 37 2 71h-139v175h167q55 219 209 356q152 135 377 135q283 0 455 -240l-160 -104q-114 150 -295 150q-136 0 -231 -80t-140 -217h512v-175h-546q-2 -34 -2 -71q0 -42 2 -72h546v-174h-512q47 -139 143 -217q98 -80 238 -80
q192 0 306 150l159 -105q-171 -239 -465 -239q-229 0 -383 135t-213 356z" />
    <glyph glyph-name="trademark" unicode="&#x2122;" horiz-adv-x="1730" 
d="M348 1294h-205v140h557v-140h-204v-645h-148v645zM963 649h-150v785h94l293 -443l295 443h92v-785h-147v455l-195 -289h-90l-192 289v-455z" />
    <glyph glyph-name="uni25FC" unicode="&#x25fc;" horiz-adv-x="962" 
d="M963 0h-963v963h963v-963z" />
    <glyph glyph-name="uniFB01" unicode="&#xfb01;" horiz-adv-x="1361" 
d="M276 788h-225v175h225v81q0 182 62 271q51 75 136 118q82 42 179 42q64 0 115 -15l-41 -178q-30 8 -72 8q-41 0 -82 -18q-42 -19 -65 -49q-37 -47 -37 -172v-88h717v-963h-195v788h-522v-788h-195v788zM1000 1235q-37 36 -37 90q0 55 37 92q36 37 90 37q55 0 92 -37
t37 -92q0 -54 -37 -90q-37 -37 -92 -37q-54 0 -90 37z" />
    <glyph glyph-name="uniFB02" unicode="&#xfb02;" horiz-adv-x="1361" 
d="M276 788h-225v175h225v81q0 182 62 271q51 75 136 118q82 42 179 42q64 0 115 -15l-41 -178q-30 8 -72 8q-41 0 -82 -18q-42 -19 -65 -49q-37 -47 -37 -172v-88h522v491h195v-1454h-195v788h-522v-788h-195v788z" />
    <glyph glyph-name="uniFB03" unicode="&#xfb03;" horiz-adv-x="2078" 
d="M276 788h-225v175h225v81q0 182 62 271q51 75 136 118q82 42 179 42q64 0 115 -15l-41 -178q-30 8 -72 8q-41 0 -82 -18q-42 -19 -65 -49q-37 -47 -37 -172v-88h522v81q0 182 62 271q52 76 135 118q82 42 180 42q64 0 115 -15l-41 -178q-30 8 -72 8t-82 -18
q-42 -19 -65 -49q-37 -47 -37 -172v-88h717v-963h-195v788h-522v-788h-195v788h-522v-788h-195v788zM1716 1235q-37 36 -37 90q0 55 37 92q36 37 90 37q55 0 92 -37t37 -92q0 -54 -37 -90q-37 -37 -92 -37q-54 0 -90 37z" />
    <glyph glyph-name="uniFB04" unicode="&#xfb04;" horiz-adv-x="2078" 
d="M276 788h-225v175h225v81q0 182 62 271q51 75 136 118q82 42 179 42q64 0 115 -15l-41 -178q-30 8 -72 8q-41 0 -82 -18q-42 -19 -65 -49q-37 -47 -37 -172v-88h522v81q0 182 62 271q52 76 135 118q82 42 180 42q64 0 115 -15l-41 -178q-30 8 -72 8t-82 -18
q-42 -19 -65 -49q-37 -47 -37 -172v-88h522v491h195v-1454h-195v788h-522v-788h-195v788h-522v-788h-195v788z" />
  </font>
</defs>
</svg>
